<?xml version="1.0" standalone="no"?><svg xmlns="http://www.w3.org/2000/svg" viewBox="0 0 1440 320"><path fill="#353a40" fill-opacity="1" d="M0,128L13.3,144C26.7,160,53,192,80,181.3C106.7,171,133,117,160,101.3C186.7,85,213,107,240,149.3C266.7,192,293,256,320,256C346.7,256,373,192,400,186.7C426.7,181,453,235,480,218.7C506.7,203,533,117,560,74.7C586.7,32,613,32,640,42.7C666.7,53,693,75,720,85.3C746.7,96,773,96,800,117.3C826.7,139,853,181,880,192C906.7,203,933,181,960,181.3C986.7,181,1013,203,1040,176C1066.7,149,1093,75,1120,64C1146.7,53,1173,107,1200,160C1226.7,213,1253,267,1280,288C1306.7,309,1333,299,1360,293.3C1386.7,288,1413,288,1427,288L1440,288L1440,320L1426.7,320C1413.3,320,1387,320,1360,320C1333.3,320,1307,320,1280,320C1253.3,320,1227,320,1200,320C1173.3,320,1147,320,1120,320C1093.3,320,1067,320,1040,320C1013.3,320,987,320,960,320C933.3,320,907,320,880,320C853.3,320,827,320,800,320C773.3,320,747,320,720,320C693.3,320,667,320,640,320C613.3,320,587,320,560,320C533.3,320,507,320,480,320C453.3,320,427,320,400,320C373.3,320,347,320,320,320C293.3,320,267,320,240,320C213.3,320,187,320,160,320C133.3,320,107,320,80,320C53.3,320,27,320,13,320L0,320Z"></path></svg>