<?xml version="1.0" standalone="no"?><svg xmlns="http://www.w3.org/2000/svg" viewBox="0 0 1440 320"><path fill="#353a40" fill-opacity="1" d="M0,192L16,165.3C32,139,64,85,96,85.3C128,85,160,139,192,165.3C224,192,256,192,288,202.7C320,213,352,235,384,213.3C416,192,448,128,480,96C512,64,544,64,576,74.7C608,85,640,107,672,144C704,181,736,235,768,213.3C800,192,832,96,864,53.3C896,11,928,21,960,69.3C992,117,1024,203,1056,208C1088,213,1120,139,1152,122.7C1184,107,1216,149,1248,144C1280,139,1312,85,1344,64C1376,43,1408,53,1424,58.7L1440,64L1440,0L1424,0C1408,0,1376,0,1344,0C1312,0,1280,0,1248,0C1216,0,1184,0,1152,0C1120,0,1088,0,1056,0C1024,0,992,0,960,0C928,0,896,0,864,0C832,0,800,0,768,0C736,0,704,0,672,0C640,0,608,0,576,0C544,0,512,0,480,0C448,0,416,0,384,0C352,0,320,0,288,0C256,0,224,0,192,0C160,0,128,0,96,0C64,0,32,0,16,0L0,0Z"></path></svg>